<svg width="23" height="23" viewBox="0 0 23 23" fill="none" xmlns="http://www.w3.org/2000/svg">
<g clip-path="url(#clip0_15_972)">
<path d="M21.4849 9.58334C20.4338 8.1562 18.9347 7.12266 17.227 6.64796C16.7671 4.97623 15.77 3.50225 14.3894 2.45334C13.0055 1.40772 11.3139 0.850767 9.57948 0.869764C7.84511 0.88876 6.16605 1.48263 4.80543 2.55831C3.4448 3.63399 2.47949 5.13069 2.06078 6.81387C1.64207 8.49705 1.79362 10.2716 2.49168 11.8594C1.51954 12.4984 0.773167 13.4272 0.358299 14.5141C-0.0565689 15.6009 -0.118887 16.7908 0.180175 17.9151C0.509573 19.1185 1.23089 20.1778 2.22997 20.9252C3.22906 21.6726 4.44886 22.0655 5.69634 22.0417H9.58334V19.1667H5.69634C5.09058 19.1833 4.49606 19.0009 4.00381 18.6475C3.51157 18.2941 3.14872 17.789 2.97084 17.2098C2.87756 16.867 2.85325 16.5092 2.89931 16.157C2.94538 15.8048 3.06091 15.4653 3.2392 15.1581C3.41749 14.8509 3.655 14.5822 3.93795 14.3675C4.2209 14.1527 4.54366 13.9964 4.88751 13.9073L6.95272 13.3735L5.68293 11.6591C5.17203 10.9723 4.84774 10.1649 4.74166 9.31548C4.63558 8.4661 4.75132 7.60371 5.07761 6.81236C5.4039 6.021 5.92961 5.32766 6.60352 4.79988C7.27743 4.2721 8.07656 3.92788 8.92305 3.80075C9.16936 3.76535 9.41787 3.74742 9.66672 3.74709C10.7452 3.74386 11.7949 4.09467 12.6548 4.74567C13.178 5.14257 13.6178 5.63869 13.9492 6.20567C14.2805 6.77264 14.4968 7.39936 14.5858 8.05L14.7306 9.13771L15.8192 9.28434C16.4825 9.37697 17.1204 9.60161 17.6953 9.94497C18.2703 10.2883 18.7706 10.7434 19.1667 11.2834C19.6024 11.8674 19.9011 12.5418 20.0407 13.2569C20.1803 13.972 20.1572 14.7093 19.9731 15.4142C19.789 16.1191 19.4487 16.7736 18.9773 17.3291C18.5059 17.8846 17.9156 18.3269 17.25 18.6233V21.713C18.4718 21.3827 19.5946 20.7595 20.5211 19.8974C21.4476 19.0352 22.1499 17.9601 22.5671 16.7652C22.9842 15.5704 23.1037 14.2918 22.9151 13.0403C22.7266 11.7888 22.2356 10.6022 21.4849 9.58334Z" fill="#3273AE"/>
<path d="M17.25 15.3334L14.0942 12.1776C13.9145 11.9979 13.6708 11.897 13.4167 11.897C13.1626 11.897 12.9188 11.9979 12.7391 12.1776L9.58334 15.3334H11.9792V23H14.8542V15.3334H17.25Z" fill="#3273AE"/>
</g>
<defs>
<clipPath id="clip0_15_972">
<rect width="23" height="23" fill="white"/>
</clipPath>
</defs>
</svg>
